<svg width="691" height="188" viewBox="0 0 691 188" fill="none" xmlns="http://www.w3.org/2000/svg">
<g filter="url(#filter0_b_128_35)">
<path d="M0 10C0 4.47715 4.47715 0 10 0H681C686.523 0 691 4.47715 691 10V178C691 183.523 686.523 188 681 188H9.99999C4.47715 188 0 183.523 0 178V10Z" fill="#518C6A"/>
<path d="M0.5 10C0.5 4.75329 4.75329 0.5 10 0.5H681C686.247 0.5 690.5 4.7533 690.5 10V178C690.5 183.247 686.247 187.5 681 187.5H9.99999C4.75329 187.5 0.5 183.247 0.5 178V10Z" stroke="#DFEBF4"/>
</g>
<defs>
<filter id="filter0_b_128_35" x="-4" y="-4" width="699" height="196" filterUnits="userSpaceOnUse" color-interpolation-filters="sRGB">
<feFlood flood-opacity="0" result="BackgroundImageFix"/>
<feGaussianBlur in="BackgroundImageFix" stdDeviation="2"/>
<feComposite in2="SourceAlpha" operator="in" result="effect1_backgroundBlur_128_35"/>
<feBlend mode="normal" in="SourceGraphic" in2="effect1_backgroundBlur_128_35" result="shape"/>
</filter>
</defs>
</svg>
